<svg width="174" height="38" viewBox="0 0 174 38" fill="none" xmlns="http://www.w3.org/2000/svg">
<path d="M13.5045 1.07764C15.2225 1.07764 16.4211 1.75621 17.0604 3.15327C17.7396 4.55033 18.0592 6.70579 18.0592 9.65957C18.0592 12.6134 17.6997 15.9663 16.9405 19.6785C18.6586 19.439 20.0569 19.3592 21.1757 19.3592C22.2944 19.3592 23.0135 19.3592 23.3731 19.3592C23.4131 19.5986 23.453 19.918 23.453 20.357C23.453 20.7961 23.3332 21.4348 23.0935 22.2331C22.0946 22.1134 20.9759 22.0734 19.7373 22.1134C18.4987 22.1533 17.38 22.2331 16.3812 22.3528C15.3424 26.6239 13.9839 30.2163 12.2259 33.0503C11.307 34.5671 10.2282 35.7646 8.98967 36.6428C7.75109 37.5209 6.39265 37.9201 4.91435 37.9201C3.43605 37.9201 2.23743 37.4012 1.35844 36.3634C0.439495 35.3655 0 34.0482 0 32.4516C0 30.0167 0.998852 27.7814 2.9566 25.6659C4.91435 23.5503 7.3116 21.9936 10.1483 20.9159C11.0273 17.1638 11.4668 13.4117 11.4668 9.7394C11.4668 7.94318 11.347 6.7457 11.0673 6.10705C10.7876 5.46839 10.428 5.14907 9.90861 5.14907C8.67003 5.14907 6.91206 5.82764 4.63467 7.2247L3.55591 5.54823C4.79449 4.43058 6.3527 3.43268 8.19059 2.4747C10.0285 1.55663 11.7865 1.07764 13.5045 1.07764ZM2.87669 32.0125C2.87669 32.6113 2.99656 33.0503 3.19633 33.4096C3.51596 33.8886 3.9155 34.1281 4.4349 34.1281C5.31389 34.0881 6.23284 33.21 7.23169 31.4936C8.19059 29.7772 8.98967 27.3024 9.66889 24.1092C7.79105 24.7877 6.19288 25.9054 4.8744 27.4222C3.55591 28.939 2.87669 30.4558 2.87669 32.0125Z" fill="#27A7FF"/>
<path d="M17.6597 27.0631C17.6597 25.8656 18.0193 23.8299 18.7384 20.9559C19.4576 18.082 19.8172 16.3257 19.8172 15.6471C19.8172 15.0085 19.2978 14.1303 18.2989 13.0526L18.3389 12.4938C20.2167 12.0946 22.7338 11.895 25.8103 11.895C25.9302 12.2543 26.0101 12.8929 26.0101 13.8509C26.0101 14.8089 25.6105 16.8047 24.8514 19.9181C24.0523 22.9917 23.6927 24.9076 23.6927 25.666C23.6927 26.4244 23.9724 26.7837 24.5318 26.7837C25.3308 26.7837 26.2897 26.5043 27.3286 25.9055C27.4484 25.227 27.7281 23.9496 28.1676 22.0736C29.1664 17.603 29.6858 14.4496 29.6858 12.5337C30.6447 12.1345 32.4027 11.9349 34.9598 11.9349H35.7589C35.7589 13.2522 35.3593 15.8068 34.6002 19.5988C33.8011 23.3908 33.4415 25.6261 33.4415 26.2648C33.4415 26.9034 33.5614 27.2627 33.8411 27.2627C34.0009 27.2627 34.8 26.9433 36.2383 26.2648L37.0374 27.582C34.5602 29.6576 32.4027 30.6555 30.5249 30.6555C29.6459 30.6555 28.8868 30.416 28.2475 29.8971C27.6082 29.3782 27.2486 28.7396 27.1687 27.9412C24.9313 29.7774 22.8537 30.6954 21.0158 30.6954C20.0569 30.6954 19.2578 30.3761 18.6186 29.7375C17.9793 29.1786 17.6597 28.2606 17.6597 27.0631Z" fill="#27A7FF"/>
<path d="M48.624 22.2331C48.1046 21.355 47.7051 20.7163 47.4254 20.397C47.1058 20.0777 46.8661 19.8382 46.6663 19.6386C48.3843 17.7625 49.2234 16.2856 49.2234 15.2079C49.2234 14.9684 49.2234 14.7289 49.1434 14.5293C49.1434 14.5293 49.1434 14.5293 49.1434 14.4894C48.9836 13.731 48.5841 13.1323 47.8649 12.6533C47.4654 12.3739 47.0259 12.1743 46.5065 12.0146C46.3866 11.9747 46.2668 11.9747 46.1868 11.9348C45.5476 11.7751 44.7885 11.6953 43.9095 11.6953C42.1515 11.6953 40.6332 12.0945 39.3547 12.8529C38.1161 13.6113 37.4769 14.689 37.4769 16.0861C37.4769 17.4831 38.5956 19.3592 40.873 21.7142C43.1503 24.0693 44.2691 25.8655 44.2691 27.1827C44.2691 28.0609 43.7496 28.5398 42.7108 28.6596C41.8319 26.4243 40.6732 24.7877 39.2748 23.7899C38.5956 23.9894 37.7965 24.5083 36.7976 25.3865C35.7988 26.2646 35.3193 26.9033 35.3193 27.3025C35.3193 27.9411 35.8787 28.6596 37.0374 29.4978C38.196 30.3361 39.7542 30.7352 41.7519 30.7352C43.7097 30.7352 45.5076 30.1764 47.0259 29.0588C48.5841 27.9411 49.3432 26.5041 49.3432 24.7478C49.3832 23.9894 49.1035 23.1512 48.624 22.2331ZM45.3478 18.2016L44.7085 17.6428C43.47 16.5251 42.8707 15.6869 42.8707 15.0483C42.8707 14.7289 43.0704 14.4096 43.5099 14.1701C43.8695 13.9705 44.269 13.8109 44.7485 13.8109C44.8684 13.8109 44.9882 13.8109 45.1081 13.8109C46.1069 13.8109 46.7062 14.0903 46.9859 14.6092C46.9859 14.6092 46.9859 14.6092 46.9859 14.6491C47.0658 14.8487 47.1058 15.0483 47.1058 15.2878C47.1058 16.2058 46.5464 17.2037 45.3478 18.2016Z" fill="#27A7FF"/>
<path d="M58.9324 14.1698C59.8913 14.1698 60.8901 14.2097 61.9289 14.3295C62.3285 13.4114 62.5682 12.6131 62.6481 11.8946H58.5728C59.0522 9.57947 59.2919 8.02275 59.2919 7.18452C59.2919 6.34628 59.252 5.66771 59.1321 5.10889C57.2143 5.10889 55.1767 5.46813 52.9792 6.22653V6.34628L53.0192 7.62359C53.0192 8.98074 52.8993 10.3778 52.6995 11.8946C52.5797 11.8946 52.4998 11.8946 52.3799 11.8946C51.3411 11.9744 50.2623 12.0143 49.1836 12.0543C48.2646 12.0942 47.3856 12.0543 46.4667 12.0143C46.4267 12.0143 46.4267 12.0143 46.3868 12.0143C46.3069 12.0143 45.8274 11.9744 45.3879 11.9345C44.9085 11.8946 44.469 11.8547 44.469 11.8946C44.3891 12.2538 44.3491 12.7328 44.3491 13.2917C44.3491 13.4513 44.3491 13.611 44.3491 13.7307C44.5089 13.7307 44.6288 13.7307 44.7487 13.7307C44.8685 13.7307 44.9884 13.7307 45.1082 13.7307C46.1071 13.7307 46.7064 14.0101 46.9861 14.5291C47.4256 14.5291 47.905 14.4891 48.3845 14.4891C48.6242 14.4891 48.9039 14.4891 49.1436 14.4492C50.582 14.4093 51.9404 14.3694 52.3799 14.3694C52.1801 15.527 51.8605 17.0038 51.4609 18.84C51.0215 20.6761 50.7018 22.2728 50.4621 23.5501C50.2224 24.8274 50.1025 25.9849 50.1025 26.9828C50.1025 28.0206 50.4221 28.819 51.0215 29.4177C51.6607 30.0165 52.4598 30.3358 53.4187 30.3358C55.5363 30.3358 57.8136 29.298 60.2908 27.2622L59.5317 25.9051C58.0134 26.6236 57.0945 26.9429 56.7349 26.9429C56.3753 26.9429 56.2155 26.5438 56.2155 25.7454C56.2155 24.2286 56.8548 20.3568 58.1333 14.1299H58.9324V14.1698Z" fill="#27A7FF"/>
<path d="M149.987 24.0293C150.427 23.8298 152.185 22.9915 152.425 22.8319C154.542 21.6344 156.18 20.8361 157.539 18.96C158.697 17.4033 158.897 15.3277 157.898 13.6113C156.82 11.6953 154.822 11.0167 152.704 11.0966C150.986 11.1764 149.468 11.8949 148.11 12.813C146.392 13.9705 144.873 15.4873 143.874 17.2835C142.876 19.0798 142.356 21.355 142.396 23.231C142.396 25.4264 142.716 27.3823 144.074 28.939C146.032 31.1344 149.468 31.294 152.065 30.2961C153.623 29.6974 155.181 28.2604 156.5 27.2625C157.699 26.3445 158.897 25.3865 160.016 24.3487C160.296 24.1092 161.334 23.5503 161.414 23.1512C161.494 22.6323 160.815 21.9537 160.296 21.9537C159.896 21.9537 159.656 22.2331 159.337 22.4327C158.937 22.7121 158.538 22.9516 158.138 23.2709C155.581 25.1071 150.787 30.2163 148.669 25.0272C148.629 24.7877 149.668 24.1491 149.987 24.0293ZM149.188 16.8844C149.668 15.5272 150.187 14.2499 151.626 14.21C152.824 14.21 152.944 15.3676 152.944 16.4852C152.944 17.2436 152.584 18.5609 152.105 19.3193C151.905 19.5987 151.626 19.9579 151.386 20.2373C150.467 21.0756 149.428 21.794 148.429 22.5125C148.429 21.7142 148.509 20.6365 148.589 19.8781C148.669 18.9201 148.909 17.6428 149.188 16.8844Z" fill="#27A7FF"/>
<path d="M140.998 14.1702C139.719 20.3971 139.08 24.229 139.08 25.7857C139.08 26.584 139.24 26.9832 139.599 26.9832C139.959 26.9832 141.597 26.3046 143.115 25.6261L143.875 26.9832C142.077 28.3004 138.681 30.416 136.243 30.416C135.284 30.416 134.485 30.0967 133.846 29.4979C133.207 28.8992 132.927 28.0609 132.927 27.063C132.927 26.0651 133.047 24.9076 133.287 23.6303C133.526 22.353 133.846 20.7962 134.286 18.9202C134.685 17.084 135.005 15.5672 135.205 14.4496C134.765 14.4895 133.447 14.5294 132.008 14.5294H131.968C131.729 14.5294 131.489 14.5294 131.209 14.5693C130.73 14.5693 130.29 14.6093 129.851 14.6093C129.811 14.4496 129.731 14.2899 129.611 14.1702C129.411 13.6513 128.932 13.2122 128.253 13.0925C128.133 13.0525 128.013 13.0126 127.893 12.9727C128.013 12.5336 127.613 11.9349 127.374 11.6156C127.533 11.8151 128.332 11.7353 128.612 11.7752C129.132 11.8551 129.771 11.9349 130.65 12.0147C132.168 12.1345 133.686 12.0147 135.205 12.0147C135.324 12.0147 135.404 12.0147 135.524 12.0147C135.764 10.4979 135.844 9.10085 135.844 7.74371L135.804 6.4664V6.34665C137.961 5.58825 140.039 5.229 141.957 5.229C142.077 5.78783 142.117 6.4664 142.117 7.30463C142.117 8.14287 141.877 9.69959 141.397 12.0147H145.473C145.433 12.6933 145.193 13.5315 144.754 14.4496C143.675 14.3298 142.676 14.2899 141.757 14.2899H140.998V14.1702Z" fill="#27A7FF"/>
<path d="M90.9754 11.2164C91.7745 10.1387 92.174 8.78151 92.174 7.14496C92.174 5.5084 91.6147 4.31092 90.456 3.59244C89.2973 2.83403 87.5394 2.47479 85.1421 2.47479C81.5862 2.47479 78.6696 3.15336 76.3922 4.5105C74.1148 5.86765 72.9961 7.34454 72.9961 8.90126C72.9961 9.69958 73.3157 10.3382 73.915 10.8571C74.5143 11.3361 75.1536 11.6555 75.7529 11.855C75.673 12.9328 75.3134 13.9706 74.6342 14.9286C73.5554 14.729 72.5566 14.1702 71.6376 13.2122C70.7187 12.2542 70.2393 11.0168 70.2393 9.46008C70.2393 6.7458 71.7575 4.47059 74.794 2.67437C77.8305 0.878151 81.746 0 86.5805 0C90.2962 0 93.2128 0.59874 95.4103 1.7563C97.5678 2.91387 98.6865 4.71008 98.6865 7.14496C98.6865 9.02101 98.0473 10.6176 96.7288 11.855C95.4103 13.0924 93.7322 14.0504 91.7345 14.6891C93.7722 15.0084 95.3704 15.7668 96.569 17.0042C98.8064 16.4055 100.844 16.1261 102.762 16.1261L104.8 16.2458C104.839 16.4454 104.879 16.645 104.879 16.8445C104.879 17.8025 104.76 18.6008 104.48 19.1597C103.721 19 102.722 18.9202 101.443 18.9202C100.165 18.9202 99.0461 19.0798 98.0473 19.3992C98.4069 20.437 98.6066 21.5147 98.6066 22.7122C98.6066 25.5462 97.7676 27.9013 96.0496 29.7374C94.3316 31.5735 92.4138 32.4916 90.2163 32.4916C88.698 32.4916 87.4595 32.0525 86.4606 31.1345C85.4617 30.2164 84.9424 28.9391 84.9424 27.2227C84.9424 25.5063 85.5816 23.8698 86.8601 22.3529C88.1387 20.7962 89.6969 19.5987 91.5348 18.7206C90.8156 16.8445 89.4971 15.9265 87.6592 15.9265H87.3795C87.2197 15.208 87.2597 14.3697 87.4994 13.4517C87.8989 13.4517 88.2985 13.4118 88.6181 13.3319C89.3373 12.9727 90.1763 12.334 90.9754 11.2164ZM80.3876 8.58193C80.3876 8.06303 80.3077 7.66387 80.1878 7.42437C80.068 7.18487 79.7883 6.82563 79.3887 6.34664L79.4287 6.06723C80.907 5.18908 82.7449 4.78992 84.9424 4.78992C85.8213 4.78992 86.4606 4.86975 86.8601 4.9895C86.98 5.26891 87.0599 5.86765 87.0599 6.7458C87.0599 7.66387 86.3407 11.0168 84.9024 16.8046C83.464 22.5924 82.625 26.9433 82.3853 29.7773C80.7472 30.2563 78.9093 30.4958 76.9116 30.4958C76.4321 30.4958 76.0725 30.4559 75.8728 30.3761C75.9926 28.6197 76.7917 24.9874 78.2301 19.4391C79.6684 13.8908 80.3876 10.2584 80.3876 8.58193ZM89.0976 28.8193C89.8567 28.8193 90.5359 28.1408 91.0953 26.7437C91.6946 25.3466 91.9743 23.8298 91.9743 22.0735L91.9343 21.355C90.8955 21.7542 89.9366 22.4727 88.9777 23.4706C88.0588 24.5084 87.5793 25.5861 87.5793 26.7836C87.5793 27.4622 87.7391 27.9811 88.0588 28.3004C88.4184 28.6597 88.738 28.8193 89.0976 28.8193Z" fill="#27A7FF"/>
<path d="M100.405 27.0631C100.405 25.8656 100.764 23.8299 101.484 20.9559C102.203 18.082 102.562 16.3257 102.562 15.6471C102.562 15.0085 102.043 14.1303 101.044 13.0526L101.084 12.4938C102.962 12.0946 105.479 11.895 108.555 11.895C108.675 12.2543 108.755 12.8929 108.755 13.8509C108.755 14.8089 108.356 16.8047 107.597 19.9181C106.797 22.9917 106.438 24.9076 106.438 25.666C106.438 26.4244 106.718 26.7837 107.277 26.7837C108.076 26.7837 109.035 26.5043 110.074 25.9055C110.194 25.227 110.473 23.9496 110.913 22.0736C111.912 17.603 112.431 14.4496 112.431 12.5337C113.39 12.1345 115.148 11.9349 117.705 11.9349H118.504C118.504 13.2522 118.104 15.8068 117.345 19.5988C116.546 23.3908 116.187 25.6261 116.187 26.2648C116.187 26.9034 116.306 27.2627 116.586 27.2627C116.746 27.2627 117.545 26.9433 118.983 26.2648L119.782 27.582C117.305 29.6576 115.148 30.6555 113.27 30.6555C112.391 30.6555 111.632 30.416 110.993 29.8971C110.353 29.3782 109.994 28.7396 109.914 27.9412C107.676 29.7774 105.599 30.6954 103.761 30.6954C102.802 30.6954 102.003 30.3761 101.364 29.7375C100.724 29.1786 100.405 28.2606 100.405 27.0631Z" fill="#27A7FF"/>
<path d="M131.409 22.0735C130.889 21.1953 130.49 20.5567 130.21 20.2373C129.891 19.918 129.651 19.6785 129.451 19.4789C131.129 17.6029 132.008 16.126 132.008 15.0482C132.008 14.8886 132.008 14.689 131.968 14.5293C131.848 13.6911 131.409 13.0125 130.69 12.4936C130.21 12.1344 129.571 11.8949 128.852 11.7352C128.212 11.6155 127.533 11.5356 126.734 11.5356C124.976 11.5356 123.458 11.9348 122.179 12.6932C120.941 13.4516 120.302 14.5293 120.302 15.9264C120.302 17.3235 121.42 19.1995 123.698 21.5546C125.935 23.9096 127.094 25.7058 127.094 27.023C127.094 27.9012 126.574 28.3802 125.536 28.4999C124.657 26.2646 123.498 24.6281 122.099 23.6302C121.42 23.8298 120.621 24.3487 119.622 25.2268C118.663 26.105 118.144 26.7436 118.144 27.1428C118.144 27.7814 118.743 28.4999 119.862 29.3382C121.021 30.1764 122.579 30.5756 124.577 30.5756C126.534 30.5756 128.332 30.0167 129.851 28.8991C131.409 27.7814 132.168 26.3445 132.168 24.5882C132.168 23.7898 131.928 22.9516 131.409 22.0735ZM128.133 18.002L127.493 17.4432C126.255 16.3256 125.655 15.4873 125.655 14.8487C125.655 14.5293 125.855 14.21 126.295 13.9705C126.734 13.6911 127.254 13.5714 127.893 13.5714C128.692 13.5714 129.291 13.731 129.571 14.1302C129.691 14.2499 129.771 14.4096 129.811 14.5693C129.851 14.7289 129.891 14.8886 129.891 15.0482C129.891 16.0062 129.331 17.0041 128.133 18.002Z" fill="#27A7FF"/>
<path d="M158.697 30.815H158.418C158.378 30.5755 158.338 30.0965 158.338 29.2981C158.338 28.4998 158.697 26.3843 159.457 22.8717C160.216 19.399 160.575 17.4032 160.575 16.8843C160.575 16.0061 160.176 15.0881 159.417 14.0502L159.057 13.5313L159.097 12.9725C160.615 12.5734 163.013 12.3339 166.329 12.3339C166.648 13.0523 166.848 14.0902 166.848 15.3675C167.168 14.8486 167.807 14.2099 168.766 13.3717C169.725 12.5334 170.724 12.1343 171.762 12.1343C173.281 12.1343 174 13.4515 174 16.046C173.88 16.2057 173.68 16.4452 173.441 16.6847C173.201 16.9641 172.721 17.3234 172.002 17.8023C171.283 18.2813 170.604 18.5607 169.925 18.6805C169.885 18.6805 169.645 18.3213 169.205 17.5628C168.766 16.8044 168.406 16.4452 168.207 16.4452C167.527 16.6847 166.888 17.1238 166.369 17.6826C165.09 23.4305 164.451 27.1826 164.451 28.8591C164.451 29.4578 164.451 29.8969 164.491 30.1364C163.532 30.6154 161.614 30.815 158.697 30.815Z" fill="#27A7FF"/>
</svg>
